<svg xmlns="http://www.w3.org/2000/svg" viewBox="0 0 440 440" fill="#C9C2B2"><circle cx="236.5" cy="5.5" r="1.7"/><circle cx="247.5" cy="5.5" r="1.7"/><circle cx="258.5" cy="5.5" r="1.7"/><circle cx="225.5" cy="16.5" r="1.7"/><circle cx="236.5" cy="16.5" r="1.7"/><circle cx="247.5" cy="16.5" r="1.7"/><circle cx="258.5" cy="16.5" r="1.7"/><circle cx="269.5" cy="16.5" r="1.7"/><circle cx="302.5" cy="16.5" r="1.7"/><circle cx="313.5" cy="16.5" r="1.7"/><circle cx="214.5" cy="27.5" r="1.7"/><circle cx="225.5" cy="27.5" r="1.7"/><circle cx="236.5" cy="27.5" r="1.7"/><circle cx="247.5" cy="27.5" r="1.7"/><circle cx="258.5" cy="27.5" r="1.7"/><circle cx="291.5" cy="27.5" r="1.7"/><circle cx="302.5" cy="27.5" r="1.7"/><circle cx="313.5" cy="27.5" r="1.7"/><circle cx="324.5" cy="27.5" r="1.7"/><circle cx="335.5" cy="27.5" r="1.7"/><circle cx="203.5" cy="38.5" r="1.7"/><circle cx="214.5" cy="38.5" r="1.7"/><circle cx="225.5" cy="38.5" r="1.7"/><circle cx="236.5" cy="38.5" r="1.7"/><circle cx="247.5" cy="38.5" r="1.7"/><circle cx="280.5" cy="38.5" r="1.7"/><circle cx="291.5" cy="38.5" r="1.7"/><circle cx="302.5" cy="38.5" r="1.7"/><circle cx="313.5" cy="38.5" r="1.7"/><circle cx="324.5" cy="38.5" r="1.7"/><circle cx="335.5" cy="38.5" r="1.7"/><circle cx="346.5" cy="38.5" r="1.7"/><circle cx="203.5" cy="49.5" r="1.7"/><circle cx="214.5" cy="49.5" r="1.7"/><circle cx="225.5" cy="49.5" r="1.7"/><circle cx="236.5" cy="49.5" r="1.7"/><circle cx="280.5" cy="49.5" r="1.7"/><circle cx="291.5" cy="49.5" r="1.7"/><circle cx="302.5" cy="49.5" r="1.7"/><circle cx="313.5" cy="49.5" r="1.7"/><circle cx="324.5" cy="49.5" r="1.7"/><circle cx="335.5" cy="49.5" r="1.7"/><circle cx="346.5" cy="49.5" r="1.7"/><circle cx="192.5" cy="60.5" r="1.7"/><circle cx="203.5" cy="60.5" r="1.7"/><circle cx="214.5" cy="60.5" r="1.7"/><circle cx="225.5" cy="60.5" r="1.7"/><circle cx="236.5" cy="60.5" r="1.7"/><circle cx="280.5" cy="60.5" r="1.7"/><circle cx="291.5" cy="60.5" r="1.7"/><circle cx="302.5" cy="60.5" r="1.7"/><circle cx="313.5" cy="60.5" r="1.7"/><circle cx="324.5" cy="60.5" r="1.7"/><circle cx="335.5" cy="60.5" r="1.7"/><circle cx="346.5" cy="60.5" r="1.7"/><circle cx="357.5" cy="60.5" r="1.7"/><circle cx="192.5" cy="71.5" r="1.7"/><circle cx="203.5" cy="71.5" r="1.7"/><circle cx="214.5" cy="71.5" r="1.7"/><circle cx="225.5" cy="71.5" r="1.7"/><circle cx="236.5" cy="71.5" r="1.7"/><circle cx="280.5" cy="71.5" r="1.7"/><circle cx="291.5" cy="71.5" r="1.7"/><circle cx="302.5" cy="71.5" r="1.7"/><circle cx="313.5" cy="71.5" r="1.7"/><circle cx="324.5" cy="71.5" r="1.7"/><circle cx="335.5" cy="71.5" r="1.7"/><circle cx="346.5" cy="71.5" r="1.7"/><circle cx="357.5" cy="71.5" r="1.7"/><circle cx="93.5" cy="82.5" r="1.7"/><circle cx="104.5" cy="82.5" r="1.7"/><circle cx="181.5" cy="82.5" r="1.7"/><circle cx="192.5" cy="82.5" r="1.7"/><circle cx="203.5" cy="82.5" r="1.7"/><circle cx="214.5" cy="82.5" r="1.7"/><circle cx="225.5" cy="82.5" r="1.7"/><circle cx="236.5" cy="82.5" r="1.7"/><circle cx="280.5" cy="82.5" r="1.7"/><circle cx="291.5" cy="82.5" r="1.7"/><circle cx="302.5" cy="82.5" r="1.7"/><circle cx="313.5" cy="82.5" r="1.7"/><circle cx="324.5" cy="82.5" r="1.7"/><circle cx="335.5" cy="82.5" r="1.7"/><circle cx="346.5" cy="82.5" r="1.7"/><circle cx="82.5" cy="93.5" r="1.7"/><circle cx="93.5" cy="93.5" r="1.7"/><circle cx="104.5" cy="93.5" r="1.7"/><circle cx="115.5" cy="93.5" r="1.7"/><circle cx="181.5" cy="93.5" r="1.7"/><circle cx="192.5" cy="93.5" r="1.7"/><circle cx="203.5" cy="93.5" r="1.7"/><circle cx="214.5" cy="93.5" r="1.7"/><circle cx="225.5" cy="93.5" r="1.7"/><circle cx="280.5" cy="93.5" r="1.7"/><circle cx="291.5" cy="93.5" r="1.7"/><circle cx="302.5" cy="93.5" r="1.7"/><circle cx="313.5" cy="93.5" r="1.7"/><circle cx="324.5" cy="93.5" r="1.7"/><circle cx="335.5" cy="93.5" r="1.7"/><circle cx="71.5" cy="104.5" r="1.7"/><circle cx="82.5" cy="104.5" r="1.7"/><circle cx="93.5" cy="104.5" r="1.7"/><circle cx="104.5" cy="104.5" r="1.7"/><circle cx="115.5" cy="104.5" r="1.7"/><circle cx="181.5" cy="104.5" r="1.7"/><circle cx="192.5" cy="104.5" r="1.7"/><circle cx="203.5" cy="104.5" r="1.7"/><circle cx="214.5" cy="104.5" r="1.7"/><circle cx="225.5" cy="104.5" r="1.7"/><circle cx="291.5" cy="104.5" r="1.7"/><circle cx="302.5" cy="104.5" r="1.7"/><circle cx="313.5" cy="104.5" r="1.7"/><circle cx="324.5" cy="104.5" r="1.7"/><circle cx="71.5" cy="115.5" r="1.7"/><circle cx="82.5" cy="115.5" r="1.7"/><circle cx="93.5" cy="115.5" r="1.7"/><circle cx="104.5" cy="115.5" r="1.7"/><circle cx="159.5" cy="115.5" r="1.7"/><circle cx="181.5" cy="115.5" r="1.7"/><circle cx="192.5" cy="115.5" r="1.7"/><circle cx="203.5" cy="115.5" r="1.7"/><circle cx="214.5" cy="115.5" r="1.7"/><circle cx="302.5" cy="115.5" r="1.7"/><circle cx="313.5" cy="115.5" r="1.7"/><circle cx="60.5" cy="126.5" r="1.7"/><circle cx="71.5" cy="126.5" r="1.7"/><circle cx="82.5" cy="126.5" r="1.7"/><circle cx="93.5" cy="126.5" r="1.7"/><circle cx="148.5" cy="126.5" r="1.7"/><circle cx="159.5" cy="126.5" r="1.7"/><circle cx="181.5" cy="126.5" r="1.7"/><circle cx="192.5" cy="126.5" r="1.7"/><circle cx="203.5" cy="126.5" r="1.7"/><circle cx="71.5" cy="137.5" r="1.7"/><circle cx="82.5" cy="137.5" r="1.7"/><circle cx="137.5" cy="137.5" r="1.7"/><circle cx="148.5" cy="137.5" r="1.7"/><circle cx="159.5" cy="137.5" r="1.7"/><circle cx="181.5" cy="137.5" r="1.7"/><circle cx="192.5" cy="137.5" r="1.7"/><circle cx="247.5" cy="137.5" r="1.7"/><circle cx="258.5" cy="137.5" r="1.7"/><circle cx="269.5" cy="137.5" r="1.7"/><circle cx="280.5" cy="137.5" r="1.7"/><circle cx="126.5" cy="148.5" r="1.7"/><circle cx="137.5" cy="148.5" r="1.7"/><circle cx="148.5" cy="148.5" r="1.7"/><circle cx="159.5" cy="148.5" r="1.7"/><circle cx="170.5" cy="148.5" r="1.7"/><circle cx="181.5" cy="148.5" r="1.7"/><circle cx="192.5" cy="148.5" r="1.7"/><circle cx="236.5" cy="148.5" r="1.7"/><circle cx="247.5" cy="148.5" r="1.7"/><circle cx="258.5" cy="148.5" r="1.7"/><circle cx="269.5" cy="148.5" r="1.7"/><circle cx="280.5" cy="148.5" r="1.7"/><circle cx="291.5" cy="148.5" r="1.7"/><circle cx="302.5" cy="148.5" r="1.7"/><circle cx="335.5" cy="148.5" r="1.7"/><circle cx="346.5" cy="148.5" r="1.7"/><circle cx="115.5" cy="159.5" r="1.7"/><circle cx="126.5" cy="159.5" r="1.7"/><circle cx="137.5" cy="159.5" r="1.7"/><circle cx="148.5" cy="159.5" r="1.7"/><circle cx="159.5" cy="159.5" r="1.7"/><circle cx="170.5" cy="159.5" r="1.7"/><circle cx="181.5" cy="159.5" r="1.7"/><circle cx="192.5" cy="159.5" r="1.7"/><circle cx="203.5" cy="159.5" r="1.7"/><circle cx="214.5" cy="159.5" r="1.7"/><circle cx="225.5" cy="159.5" r="1.7"/><circle cx="236.5" cy="159.5" r="1.7"/><circle cx="247.5" cy="159.5" r="1.7"/><circle cx="258.5" cy="159.5" r="1.7"/><circle cx="269.5" cy="159.5" r="1.7"/><circle cx="280.5" cy="159.5" r="1.7"/><circle cx="291.5" cy="159.5" r="1.7"/><circle cx="302.5" cy="159.5" r="1.7"/><circle cx="313.5" cy="159.5" r="1.7"/><circle cx="324.5" cy="159.5" r="1.7"/><circle cx="335.5" cy="159.5" r="1.7"/><circle cx="346.5" cy="159.5" r="1.7"/><circle cx="357.5" cy="159.5" r="1.7"/><circle cx="368.5" cy="159.5" r="1.7"/><circle cx="104.5" cy="170.5" r="1.7"/><circle cx="115.5" cy="170.5" r="1.7"/><circle cx="126.5" cy="170.5" r="1.7"/><circle cx="137.5" cy="170.5" r="1.7"/><circle cx="148.5" cy="170.5" r="1.7"/><circle cx="159.5" cy="170.5" r="1.7"/><circle cx="170.5" cy="170.5" r="1.7"/><circle cx="181.5" cy="170.5" r="1.7"/><circle cx="192.5" cy="170.5" r="1.7"/><circle cx="203.5" cy="170.5" r="1.7"/><circle cx="214.5" cy="170.5" r="1.7"/><circle cx="225.5" cy="170.5" r="1.7"/><circle cx="236.5" cy="170.5" r="1.7"/><circle cx="247.5" cy="170.5" r="1.7"/><circle cx="258.5" cy="170.5" r="1.7"/><circle cx="269.5" cy="170.5" r="1.7"/><circle cx="280.5" cy="170.5" r="1.7"/><circle cx="291.5" cy="170.5" r="1.7"/><circle cx="302.5" cy="170.5" r="1.7"/><circle cx="313.5" cy="170.5" r="1.7"/><circle cx="324.5" cy="170.5" r="1.7"/><circle cx="335.5" cy="170.5" r="1.7"/><circle cx="346.5" cy="170.5" r="1.7"/><circle cx="357.5" cy="170.5" r="1.7"/><circle cx="368.5" cy="170.5" r="1.7"/><circle cx="379.5" cy="170.5" r="1.7"/><circle cx="93.5" cy="181.5" r="1.7"/><circle cx="104.5" cy="181.5" r="1.7"/><circle cx="115.5" cy="181.5" r="1.7"/><circle cx="126.5" cy="181.5" r="1.7"/><circle cx="137.5" cy="181.5" r="1.7"/><circle cx="148.5" cy="181.5" r="1.7"/><circle cx="159.5" cy="181.5" r="1.7"/><circle cx="170.5" cy="181.5" r="1.7"/><circle cx="181.5" cy="181.5" r="1.7"/><circle cx="192.5" cy="181.5" r="1.7"/><circle cx="203.5" cy="181.5" r="1.7"/><circle cx="214.5" cy="181.5" r="1.7"/><circle cx="225.5" cy="181.5" r="1.7"/><circle cx="236.5" cy="181.5" r="1.7"/><circle cx="247.5" cy="181.5" r="1.7"/><circle cx="258.5" cy="181.5" r="1.7"/><circle cx="269.5" cy="181.5" r="1.7"/><circle cx="280.5" cy="181.5" r="1.7"/><circle cx="291.5" cy="181.5" r="1.7"/><circle cx="302.5" cy="181.5" r="1.7"/><circle cx="313.5" cy="181.5" r="1.7"/><circle cx="324.5" cy="181.5" r="1.7"/><circle cx="335.5" cy="181.5" r="1.7"/><circle cx="346.5" cy="181.5" r="1.7"/><circle cx="357.5" cy="181.5" r="1.7"/><circle cx="368.5" cy="181.5" r="1.7"/><circle cx="379.5" cy="181.5" r="1.7"/><circle cx="82.5" cy="192.5" r="1.7"/><circle cx="93.5" cy="192.5" r="1.7"/><circle cx="104.5" cy="192.5" r="1.7"/><circle cx="115.5" cy="192.5" r="1.7"/><circle cx="126.5" cy="192.5" r="1.7"/><circle cx="137.5" cy="192.5" r="1.7"/><circle cx="148.5" cy="192.5" r="1.7"/><circle cx="159.5" cy="192.5" r="1.7"/><circle cx="170.5" cy="192.5" r="1.7"/><circle cx="181.5" cy="192.5" r="1.7"/><circle cx="192.5" cy="192.5" r="1.7"/><circle cx="203.5" cy="192.5" r="1.7"/><circle cx="214.5" cy="192.5" r="1.7"/><circle cx="225.5" cy="192.5" r="1.7"/><circle cx="236.5" cy="192.5" r="1.7"/><circle cx="247.5" cy="192.5" r="1.7"/><circle cx="258.5" cy="192.5" r="1.7"/><circle cx="269.5" cy="192.5" r="1.7"/><circle cx="280.5" cy="192.5" r="1.7"/><circle cx="291.5" cy="192.5" r="1.7"/><circle cx="302.5" cy="192.5" r="1.7"/><circle cx="313.5" cy="192.5" r="1.7"/><circle cx="324.5" cy="192.5" r="1.7"/><circle cx="335.5" cy="192.5" r="1.7"/><circle cx="346.5" cy="192.5" r="1.7"/><circle cx="357.5" cy="192.5" r="1.7"/><circle cx="368.5" cy="192.5" r="1.7"/><circle cx="379.5" cy="192.5" r="1.7"/><circle cx="390.5" cy="192.5" r="1.7"/><circle cx="82.5" cy="203.5" r="1.7"/><circle cx="93.5" cy="203.5" r="1.7"/><circle cx="104.5" cy="203.5" r="1.7"/><circle cx="115.5" cy="203.5" r="1.7"/><circle cx="126.5" cy="203.5" r="1.7"/><circle cx="137.5" cy="203.5" r="1.7"/><circle cx="148.5" cy="203.5" r="1.7"/><circle cx="159.5" cy="203.5" r="1.7"/><circle cx="170.5" cy="203.5" r="1.7"/><circle cx="181.5" cy="203.5" r="1.7"/><circle cx="192.5" cy="203.5" r="1.7"/><circle cx="203.5" cy="203.5" r="1.7"/><circle cx="214.5" cy="203.5" r="1.7"/><circle cx="225.5" cy="203.5" r="1.7"/><circle cx="236.5" cy="203.5" r="1.7"/><circle cx="247.5" cy="203.5" r="1.7"/><circle cx="258.5" cy="203.5" r="1.7"/><circle cx="269.5" cy="203.5" r="1.7"/><circle cx="280.5" cy="203.5" r="1.7"/><circle cx="291.5" cy="203.5" r="1.7"/><circle cx="302.5" cy="203.5" r="1.7"/><circle cx="313.5" cy="203.5" r="1.7"/><circle cx="324.5" cy="203.5" r="1.7"/><circle cx="335.5" cy="203.5" r="1.7"/><circle cx="346.5" cy="203.5" r="1.7"/><circle cx="357.5" cy="203.5" r="1.7"/><circle cx="368.5" cy="203.5" r="1.7"/><circle cx="379.5" cy="203.5" r="1.7"/><circle cx="390.5" cy="203.5" r="1.7"/><circle cx="71.5" cy="214.5" r="1.7"/><circle cx="82.5" cy="214.5" r="1.7"/><circle cx="93.5" cy="214.5" r="1.7"/><circle cx="104.5" cy="214.5" r="1.7"/><circle cx="115.5" cy="214.5" r="1.7"/><circle cx="126.5" cy="214.5" r="1.7"/><circle cx="137.5" cy="214.5" r="1.7"/><circle cx="148.5" cy="214.5" r="1.7"/><circle cx="159.5" cy="214.5" r="1.7"/><circle cx="170.5" cy="214.5" r="1.7"/><circle cx="181.5" cy="214.5" r="1.7"/><circle cx="192.5" cy="214.5" r="1.7"/><circle cx="203.5" cy="214.5" r="1.7"/><circle cx="214.5" cy="214.5" r="1.7"/><circle cx="225.5" cy="214.5" r="1.7"/><circle cx="236.5" cy="214.5" r="1.7"/><circle cx="247.5" cy="214.5" r="1.7"/><circle cx="258.5" cy="214.5" r="1.7"/><circle cx="269.5" cy="214.5" r="1.7"/><circle cx="280.5" cy="214.5" r="1.7"/><circle cx="291.5" cy="214.5" r="1.7"/><circle cx="302.5" cy="214.5" r="1.7"/><circle cx="313.5" cy="214.5" r="1.7"/><circle cx="324.5" cy="214.5" r="1.7"/><circle cx="335.5" cy="214.5" r="1.7"/><circle cx="346.5" cy="214.5" r="1.7"/><circle cx="357.5" cy="214.5" r="1.7"/><circle cx="368.5" cy="214.5" r="1.7"/><circle cx="379.5" cy="214.5" r="1.7"/><circle cx="71.5" cy="225.5" r="1.7"/><circle cx="82.5" cy="225.5" r="1.7"/><circle cx="93.5" cy="225.5" r="1.7"/><circle cx="104.5" cy="225.5" r="1.7"/><circle cx="115.5" cy="225.5" r="1.7"/><circle cx="126.5" cy="225.5" r="1.7"/><circle cx="137.5" cy="225.5" r="1.7"/><circle cx="148.5" cy="225.5" r="1.7"/><circle cx="159.5" cy="225.5" r="1.7"/><circle cx="170.5" cy="225.5" r="1.7"/><circle cx="181.5" cy="225.5" r="1.7"/><circle cx="192.5" cy="225.5" r="1.7"/><circle cx="203.5" cy="225.5" r="1.7"/><circle cx="214.5" cy="225.5" r="1.7"/><circle cx="225.5" cy="225.5" r="1.7"/><circle cx="236.5" cy="225.5" r="1.7"/><circle cx="247.5" cy="225.5" r="1.7"/><circle cx="258.5" cy="225.5" r="1.7"/><circle cx="269.5" cy="225.5" r="1.7"/><circle cx="280.5" cy="225.5" r="1.7"/><circle cx="291.5" cy="225.5" r="1.7"/><circle cx="302.5" cy="225.5" r="1.7"/><circle cx="313.5" cy="225.5" r="1.7"/><circle cx="324.5" cy="225.5" r="1.7"/><circle cx="335.5" cy="225.5" r="1.7"/><circle cx="346.5" cy="225.5" r="1.7"/><circle cx="357.5" cy="225.5" r="1.7"/><circle cx="368.5" cy="225.5" r="1.7"/><circle cx="60.5" cy="236.5" r="1.7"/><circle cx="71.5" cy="236.5" r="1.7"/><circle cx="82.5" cy="236.5" r="1.7"/><circle cx="93.5" cy="236.5" r="1.7"/><circle cx="104.5" cy="236.5" r="1.7"/><circle cx="115.5" cy="236.5" r="1.7"/><circle cx="126.5" cy="236.5" r="1.7"/><circle cx="137.5" cy="236.5" r="1.7"/><circle cx="148.5" cy="236.5" r="1.7"/><circle cx="159.5" cy="236.5" r="1.7"/><circle cx="170.5" cy="236.5" r="1.7"/><circle cx="181.5" cy="236.5" r="1.7"/><circle cx="192.5" cy="236.5" r="1.7"/><circle cx="203.5" cy="236.5" r="1.7"/><circle cx="214.5" cy="236.5" r="1.7"/><circle cx="225.5" cy="236.5" r="1.7"/><circle cx="236.5" cy="236.5" r="1.7"/><circle cx="247.5" cy="236.5" r="1.7"/><circle cx="258.5" cy="236.5" r="1.7"/><circle cx="269.5" cy="236.5" r="1.7"/><circle cx="280.5" cy="236.5" r="1.7"/><circle cx="291.5" cy="236.5" r="1.7"/><circle cx="302.5" cy="236.5" r="1.7"/><circle cx="313.5" cy="236.5" r="1.7"/><circle cx="324.5" cy="236.5" r="1.7"/><circle cx="335.5" cy="236.5" r="1.7"/><circle cx="346.5" cy="236.5" r="1.7"/><circle cx="357.5" cy="236.5" r="1.7"/><circle cx="60.5" cy="247.5" r="1.7"/><circle cx="71.5" cy="247.5" r="1.7"/><circle cx="82.5" cy="247.5" r="1.7"/><circle cx="93.5" cy="247.5" r="1.7"/><circle cx="104.5" cy="247.5" r="1.7"/><circle cx="115.5" cy="247.5" r="1.7"/><circle cx="126.5" cy="247.5" r="1.7"/><circle cx="137.5" cy="247.5" r="1.7"/><circle cx="148.5" cy="247.5" r="1.7"/><circle cx="159.5" cy="247.5" r="1.7"/><circle cx="170.5" cy="247.5" r="1.7"/><circle cx="181.5" cy="247.5" r="1.7"/><circle cx="192.5" cy="247.5" r="1.7"/><circle cx="203.5" cy="247.5" r="1.7"/><circle cx="214.5" cy="247.5" r="1.7"/><circle cx="225.5" cy="247.5" r="1.7"/><circle cx="236.5" cy="247.5" r="1.7"/><circle cx="247.5" cy="247.5" r="1.7"/><circle cx="258.5" cy="247.5" r="1.7"/><circle cx="269.5" cy="247.5" r="1.7"/><circle cx="280.5" cy="247.5" r="1.7"/><circle cx="291.5" cy="247.5" r="1.7"/><circle cx="302.5" cy="247.5" r="1.7"/><circle cx="313.5" cy="247.5" r="1.7"/><circle cx="324.5" cy="247.5" r="1.7"/><circle cx="335.5" cy="247.5" r="1.7"/><circle cx="346.5" cy="247.5" r="1.7"/><circle cx="357.5" cy="247.5" r="1.7"/><circle cx="368.5" cy="247.5" r="1.7"/><circle cx="49.5" cy="258.5" r="1.7"/><circle cx="60.5" cy="258.5" r="1.7"/><circle cx="71.5" cy="258.5" r="1.7"/><circle cx="82.5" cy="258.5" r="1.7"/><circle cx="93.5" cy="258.5" r="1.7"/><circle cx="104.5" cy="258.5" r="1.7"/><circle cx="115.5" cy="258.5" r="1.7"/><circle cx="126.5" cy="258.5" r="1.7"/><circle cx="137.5" cy="258.5" r="1.7"/><circle cx="148.5" cy="258.5" r="1.7"/><circle cx="159.5" cy="258.5" r="1.7"/><circle cx="170.5" cy="258.5" r="1.7"/><circle cx="181.5" cy="258.5" r="1.7"/><circle cx="192.5" cy="258.5" r="1.7"/><circle cx="203.5" cy="258.5" r="1.7"/><circle cx="214.5" cy="258.5" r="1.7"/><circle cx="225.5" cy="258.5" r="1.7"/><circle cx="236.5" cy="258.5" r="1.7"/><circle cx="247.5" cy="258.5" r="1.7"/><circle cx="258.5" cy="258.5" r="1.7"/><circle cx="269.5" cy="258.5" r="1.7"/><circle cx="280.5" cy="258.5" r="1.7"/><circle cx="291.5" cy="258.5" r="1.7"/><circle cx="302.5" cy="258.5" r="1.7"/><circle cx="313.5" cy="258.5" r="1.7"/><circle cx="324.5" cy="258.5" r="1.7"/><circle cx="335.5" cy="258.5" r="1.7"/><circle cx="346.5" cy="258.5" r="1.7"/><circle cx="357.5" cy="258.5" r="1.7"/><circle cx="368.5" cy="258.5" r="1.7"/><circle cx="379.5" cy="258.5" r="1.7"/><circle cx="49.5" cy="269.5" r="1.7"/><circle cx="60.5" cy="269.5" r="1.7"/><circle cx="71.5" cy="269.5" r="1.7"/><circle cx="82.5" cy="269.5" r="1.7"/><circle cx="93.5" cy="269.5" r="1.7"/><circle cx="104.5" cy="269.5" r="1.7"/><circle cx="115.5" cy="269.5" r="1.7"/><circle cx="126.5" cy="269.5" r="1.7"/><circle cx="137.5" cy="269.5" r="1.7"/><circle cx="148.5" cy="269.5" r="1.7"/><circle cx="159.5" cy="269.5" r="1.7"/><circle cx="170.5" cy="269.5" r="1.7"/><circle cx="181.5" cy="269.5" r="1.7"/><circle cx="192.5" cy="269.5" r="1.7"/><circle cx="203.5" cy="269.5" r="1.7"/><circle cx="214.5" cy="269.5" r="1.7"/><circle cx="225.5" cy="269.5" r="1.7"/><circle cx="236.5" cy="269.5" r="1.7"/><circle cx="247.5" cy="269.5" r="1.7"/><circle cx="258.5" cy="269.5" r="1.7"/><circle cx="269.5" cy="269.5" r="1.7"/><circle cx="291.5" cy="269.5" r="1.7"/><circle cx="302.5" cy="269.5" r="1.7"/><circle cx="313.5" cy="269.5" r="1.7"/><circle cx="324.5" cy="269.5" r="1.7"/><circle cx="335.5" cy="269.5" r="1.7"/><circle cx="346.5" cy="269.5" r="1.7"/><circle cx="357.5" cy="269.5" r="1.7"/><circle cx="368.5" cy="269.5" r="1.7"/><circle cx="379.5" cy="269.5" r="1.7"/><circle cx="390.5" cy="269.5" r="1.7"/><circle cx="38.5" cy="280.5" r="1.7"/><circle cx="49.5" cy="280.5" r="1.7"/><circle cx="60.5" cy="280.5" r="1.7"/><circle cx="71.5" cy="280.5" r="1.7"/><circle cx="82.5" cy="280.5" r="1.7"/><circle cx="93.5" cy="280.5" r="1.7"/><circle cx="104.5" cy="280.5" r="1.7"/><circle cx="115.5" cy="280.5" r="1.7"/><circle cx="126.5" cy="280.5" r="1.7"/><circle cx="137.5" cy="280.5" r="1.7"/><circle cx="148.5" cy="280.5" r="1.7"/><circle cx="159.5" cy="280.5" r="1.7"/><circle cx="170.5" cy="280.5" r="1.7"/><circle cx="181.5" cy="280.5" r="1.7"/><circle cx="192.5" cy="280.5" r="1.7"/><circle cx="203.5" cy="280.5" r="1.7"/><circle cx="214.5" cy="280.5" r="1.7"/><circle cx="225.5" cy="280.5" r="1.7"/><circle cx="236.5" cy="280.5" r="1.7"/><circle cx="247.5" cy="280.5" r="1.7"/><circle cx="258.5" cy="280.5" r="1.7"/><circle cx="302.5" cy="280.5" r="1.7"/><circle cx="313.5" cy="280.5" r="1.7"/><circle cx="324.5" cy="280.5" r="1.7"/><circle cx="335.5" cy="280.5" r="1.7"/><circle cx="346.5" cy="280.5" r="1.7"/><circle cx="357.5" cy="280.5" r="1.7"/><circle cx="368.5" cy="280.5" r="1.7"/><circle cx="379.5" cy="280.5" r="1.7"/><circle cx="390.5" cy="280.5" r="1.7"/><circle cx="38.5" cy="291.5" r="1.7"/><circle cx="49.5" cy="291.5" r="1.7"/><circle cx="60.5" cy="291.5" r="1.7"/><circle cx="71.5" cy="291.5" r="1.7"/><circle cx="82.5" cy="291.5" r="1.7"/><circle cx="93.5" cy="291.5" r="1.7"/><circle cx="104.5" cy="291.5" r="1.7"/><circle cx="115.5" cy="291.5" r="1.7"/><circle cx="126.5" cy="291.5" r="1.7"/><circle cx="137.5" cy="291.5" r="1.7"/><circle cx="148.5" cy="291.5" r="1.7"/><circle cx="159.5" cy="291.5" r="1.7"/><circle cx="170.5" cy="291.5" r="1.7"/><circle cx="181.5" cy="291.5" r="1.7"/><circle cx="192.5" cy="291.5" r="1.7"/><circle cx="203.5" cy="291.5" r="1.7"/><circle cx="214.5" cy="291.5" r="1.7"/><circle cx="225.5" cy="291.5" r="1.7"/><circle cx="236.5" cy="291.5" r="1.7"/><circle cx="247.5" cy="291.5" r="1.7"/><circle cx="302.5" cy="291.5" r="1.7"/><circle cx="313.5" cy="291.5" r="1.7"/><circle cx="324.5" cy="291.5" r="1.7"/><circle cx="335.5" cy="291.5" r="1.7"/><circle cx="346.5" cy="291.5" r="1.7"/><circle cx="357.5" cy="291.5" r="1.7"/><circle cx="368.5" cy="291.5" r="1.7"/><circle cx="379.5" cy="291.5" r="1.7"/><circle cx="390.5" cy="291.5" r="1.7"/><circle cx="401.5" cy="291.5" r="1.7"/><circle cx="38.5" cy="302.5" r="1.7"/><circle cx="49.5" cy="302.5" r="1.7"/><circle cx="60.5" cy="302.5" r="1.7"/><circle cx="71.5" cy="302.5" r="1.7"/><circle cx="82.5" cy="302.5" r="1.7"/><circle cx="93.5" cy="302.5" r="1.7"/><circle cx="104.5" cy="302.5" r="1.7"/><circle cx="115.5" cy="302.5" r="1.7"/><circle cx="126.5" cy="302.5" r="1.7"/><circle cx="137.5" cy="302.5" r="1.7"/><circle cx="148.5" cy="302.5" r="1.7"/><circle cx="159.5" cy="302.5" r="1.7"/><circle cx="170.5" cy="302.5" r="1.7"/><circle cx="181.5" cy="302.5" r="1.7"/><circle cx="192.5" cy="302.5" r="1.7"/><circle cx="203.5" cy="302.5" r="1.7"/><circle cx="214.5" cy="302.5" r="1.7"/><circle cx="225.5" cy="302.5" r="1.7"/><circle cx="236.5" cy="302.5" r="1.7"/><circle cx="302.5" cy="302.5" r="1.7"/><circle cx="313.5" cy="302.5" r="1.7"/><circle cx="324.5" cy="302.5" r="1.7"/><circle cx="335.5" cy="302.5" r="1.7"/><circle cx="346.5" cy="302.5" r="1.7"/><circle cx="357.5" cy="302.5" r="1.7"/><circle cx="368.5" cy="302.5" r="1.7"/><circle cx="379.5" cy="302.5" r="1.7"/><circle cx="390.5" cy="302.5" r="1.7"/><circle cx="49.5" cy="313.5" r="1.7"/><circle cx="60.5" cy="313.5" r="1.7"/><circle cx="71.5" cy="313.5" r="1.7"/><circle cx="82.5" cy="313.5" r="1.7"/><circle cx="93.5" cy="313.5" r="1.7"/><circle cx="104.5" cy="313.5" r="1.7"/><circle cx="115.5" cy="313.5" r="1.7"/><circle cx="126.5" cy="313.5" r="1.7"/><circle cx="137.5" cy="313.5" r="1.7"/><circle cx="148.5" cy="313.5" r="1.7"/><circle cx="159.5" cy="313.5" r="1.7"/><circle cx="170.5" cy="313.5" r="1.7"/><circle cx="181.5" cy="313.5" r="1.7"/><circle cx="192.5" cy="313.5" r="1.7"/><circle cx="203.5" cy="313.5" r="1.7"/><circle cx="214.5" cy="313.5" r="1.7"/><circle cx="225.5" cy="313.5" r="1.7"/><circle cx="302.5" cy="313.5" r="1.7"/><circle cx="313.5" cy="313.5" r="1.7"/><circle cx="324.5" cy="313.5" r="1.7"/><circle cx="335.5" cy="313.5" r="1.7"/><circle cx="346.5" cy="313.5" r="1.7"/><circle cx="357.5" cy="313.5" r="1.7"/><circle cx="368.5" cy="313.5" r="1.7"/><circle cx="379.5" cy="313.5" r="1.7"/><circle cx="60.5" cy="324.5" r="1.7"/><circle cx="71.5" cy="324.5" r="1.7"/><circle cx="82.5" cy="324.5" r="1.7"/><circle cx="93.5" cy="324.5" r="1.7"/><circle cx="104.5" cy="324.5" r="1.7"/><circle cx="115.5" cy="324.5" r="1.7"/><circle cx="126.5" cy="324.5" r="1.7"/><circle cx="137.5" cy="324.5" r="1.7"/><circle cx="148.5" cy="324.5" r="1.7"/><circle cx="159.5" cy="324.5" r="1.7"/><circle cx="170.5" cy="324.5" r="1.7"/><circle cx="181.5" cy="324.5" r="1.7"/><circle cx="192.5" cy="324.5" r="1.7"/><circle cx="203.5" cy="324.5" r="1.7"/><circle cx="214.5" cy="324.5" r="1.7"/><circle cx="302.5" cy="324.5" r="1.7"/><circle cx="313.5" cy="324.5" r="1.7"/><circle cx="324.5" cy="324.5" r="1.7"/><circle cx="335.5" cy="324.5" r="1.7"/><circle cx="346.5" cy="324.5" r="1.7"/><circle cx="357.5" cy="324.5" r="1.7"/><circle cx="368.5" cy="324.5" r="1.7"/><circle cx="71.5" cy="335.5" r="1.7"/><circle cx="82.5" cy="335.5" r="1.7"/><circle cx="93.5" cy="335.5" r="1.7"/><circle cx="104.5" cy="335.5" r="1.7"/><circle cx="115.5" cy="335.5" r="1.7"/><circle cx="126.5" cy="335.5" r="1.7"/><circle cx="137.5" cy="335.5" r="1.7"/><circle cx="148.5" cy="335.5" r="1.7"/><circle cx="170.5" cy="335.5" r="1.7"/><circle cx="181.5" cy="335.5" r="1.7"/><circle cx="192.5" cy="335.5" r="1.7"/><circle cx="203.5" cy="335.5" r="1.7"/><circle cx="214.5" cy="335.5" r="1.7"/><circle cx="302.5" cy="335.5" r="1.7"/><circle cx="313.5" cy="335.5" r="1.7"/><circle cx="324.5" cy="335.5" r="1.7"/><circle cx="335.5" cy="335.5" r="1.7"/><circle cx="346.5" cy="335.5" r="1.7"/><circle cx="357.5" cy="335.5" r="1.7"/><circle cx="82.5" cy="346.5" r="1.7"/><circle cx="93.5" cy="346.5" r="1.7"/><circle cx="104.5" cy="346.5" r="1.7"/><circle cx="115.5" cy="346.5" r="1.7"/><circle cx="126.5" cy="346.5" r="1.7"/><circle cx="170.5" cy="346.5" r="1.7"/><circle cx="181.5" cy="346.5" r="1.7"/><circle cx="192.5" cy="346.5" r="1.7"/><circle cx="203.5" cy="346.5" r="1.7"/><circle cx="302.5" cy="346.5" r="1.7"/><circle cx="313.5" cy="346.5" r="1.7"/><circle cx="324.5" cy="346.5" r="1.7"/><circle cx="335.5" cy="346.5" r="1.7"/><circle cx="346.5" cy="346.5" r="1.7"/><circle cx="357.5" cy="346.5" r="1.7"/><circle cx="82.5" cy="357.5" r="1.7"/><circle cx="93.5" cy="357.5" r="1.7"/><circle cx="104.5" cy="357.5" r="1.7"/><circle cx="115.5" cy="357.5" r="1.7"/><circle cx="170.5" cy="357.5" r="1.7"/><circle cx="181.5" cy="357.5" r="1.7"/><circle cx="192.5" cy="357.5" r="1.7"/><circle cx="203.5" cy="357.5" r="1.7"/><circle cx="291.5" cy="357.5" r="1.7"/><circle cx="302.5" cy="357.5" r="1.7"/><circle cx="313.5" cy="357.5" r="1.7"/><circle cx="324.5" cy="357.5" r="1.7"/><circle cx="335.5" cy="357.5" r="1.7"/><circle cx="82.5" cy="368.5" r="1.7"/><circle cx="93.5" cy="368.5" r="1.7"/><circle cx="104.5" cy="368.5" r="1.7"/><circle cx="170.5" cy="368.5" r="1.7"/><circle cx="181.5" cy="368.5" r="1.7"/><circle cx="192.5" cy="368.5" r="1.7"/><circle cx="203.5" cy="368.5" r="1.7"/><circle cx="280.5" cy="368.5" r="1.7"/><circle cx="291.5" cy="368.5" r="1.7"/><circle cx="302.5" cy="368.5" r="1.7"/><circle cx="313.5" cy="368.5" r="1.7"/><circle cx="324.5" cy="368.5" r="1.7"/><circle cx="335.5" cy="368.5" r="1.7"/><circle cx="170.5" cy="379.5" r="1.7"/><circle cx="181.5" cy="379.5" r="1.7"/><circle cx="192.5" cy="379.5" r="1.7"/><circle cx="269.5" cy="379.5" r="1.7"/><circle cx="280.5" cy="379.5" r="1.7"/><circle cx="291.5" cy="379.5" r="1.7"/><circle cx="302.5" cy="379.5" r="1.7"/><circle cx="324.5" cy="379.5" r="1.7"/><circle cx="335.5" cy="379.5" r="1.7"/><circle cx="170.5" cy="390.5" r="1.7"/><circle cx="181.5" cy="390.5" r="1.7"/><circle cx="192.5" cy="390.5" r="1.7"/><circle cx="258.5" cy="390.5" r="1.7"/><circle cx="269.5" cy="390.5" r="1.7"/><circle cx="280.5" cy="390.5" r="1.7"/><circle cx="181.5" cy="401.5" r="1.7"/><circle cx="247.5" cy="401.5" r="1.7"/><circle cx="258.5" cy="401.5" r="1.7"/><circle cx="269.5" cy="401.5" r="1.7"/><circle cx="280.5" cy="401.5" r="1.7"/><circle cx="346.5" cy="401.5" r="1.7"/><circle cx="357.5" cy="401.5" r="1.7"/><circle cx="236.5" cy="412.5" r="1.7"/><circle cx="247.5" cy="412.5" r="1.7"/><circle cx="258.5" cy="412.5" r="1.7"/><circle cx="324.5" cy="412.5" r="1.7"/><circle cx="335.5" cy="412.5" r="1.7"/><circle cx="346.5" cy="412.5" r="1.7"/><circle cx="357.5" cy="412.5" r="1.7"/><circle cx="368.5" cy="412.5" r="1.7"/><circle cx="225.5" cy="423.5" r="1.7"/><circle cx="236.5" cy="423.5" r="1.7"/><circle cx="324.5" cy="423.5" r="1.7"/><circle cx="335.5" cy="423.5" r="1.7"/><circle cx="346.5" cy="423.5" r="1.7"/><circle cx="291.5" cy="434.5" r="1.7"/><circle cx="302.5" cy="434.5" r="1.7"/></svg>