<svg xmlns="http://www.w3.org/2000/svg" class="model-adoption-network" viewBox="0 0 2200 1117" role="img" aria-labelledby="arc-title arc-desc">
<title id="arc-title">Illustrative regional connection overlay</title>
<desc id="arc-desc">Decorative arcs connect the United States, Europe and Asia. The arcs are illustrative, not measured routes. Measured data is conveyed elsewhere in the instrument.</desc>
<defs><style><![CDATA[
.arc-network { pointer-events:none; }
.arc-glow path {
  fill:none; stroke-linecap:round; vector-effect:non-scaling-stroke;
  mix-blend-mode:screen; filter:url(#arcGlow);
}
.arc-core path {
  fill:none; stroke-linecap:round; vector-effect:non-scaling-stroke;
  mix-blend-mode:screen;
}
.arc-pulse path {
  fill:none; stroke-linecap:round; vector-effect:non-scaling-stroke;
  mix-blend-mode:screen; stroke-dasharray:1 72; filter:url(#sparkGlow);
  animation: arcTravel var(--duration, 5.6s) linear infinite;
}
@keyframes arcTravel { to { stroke-dashoffset:-73; } }
.node-halo { mix-blend-mode:screen; }
@media (prefers-reduced-motion: reduce) {
  .arc-pulse path { animation:none; opacity:.24 !important; }
}
]]></style><linearGradient id="g-us-europe" gradientUnits="userSpaceOnUse" x1="228.8" y1="329.515" x2="1007.6" y2="228.985">
    <stop offset="0%" stop-color="#3284FF"/><stop offset="43%" stop-color="#3284FF" stop-opacity=".92"/>
    <stop offset="57%" stop-color="#FFC21C" stop-opacity=".92"/><stop offset="100%" stop-color="#FFC21C"/></linearGradient><linearGradient id="g-europe-asia" gradientUnits="userSpaceOnUse" x1="1007.6" y1="228.985" x2="1878.8" y2="364.142">
    <stop offset="0%" stop-color="#FFC21C"/><stop offset="43%" stop-color="#FFC21C" stop-opacity=".92"/>
    <stop offset="57%" stop-color="#A54CFF" stop-opacity=".92"/><stop offset="100%" stop-color="#A54CFF"/></linearGradient><linearGradient id="g-us-asia" gradientUnits="userSpaceOnUse" x1="228.8" y1="329.515" x2="1878.8" y2="364.142">
    <stop offset="0%" stop-color="#3284FF"/><stop offset="43%" stop-color="#3284FF" stop-opacity=".92"/>
    <stop offset="57%" stop-color="#A54CFF" stop-opacity=".92"/><stop offset="100%" stop-color="#A54CFF"/></linearGradient><radialGradient id="halo-us"><stop offset="0%" stop-color="#fff" stop-opacity="1"/>
    <stop offset="9%" stop-color="#3284FF" stop-opacity=".95"/><stop offset="34%" stop-color="#3284FF" stop-opacity=".38"/>
    <stop offset="100%" stop-color="#3284FF" stop-opacity="0"/></radialGradient><radialGradient id="halo-europe"><stop offset="0%" stop-color="#fff" stop-opacity="1"/>
    <stop offset="9%" stop-color="#FFC21C" stop-opacity=".95"/><stop offset="34%" stop-color="#FFC21C" stop-opacity=".38"/>
    <stop offset="100%" stop-color="#FFC21C" stop-opacity="0"/></radialGradient><radialGradient id="halo-asia"><stop offset="0%" stop-color="#fff" stop-opacity="1"/>
    <stop offset="9%" stop-color="#A54CFF" stop-opacity=".95"/><stop offset="34%" stop-color="#A54CFF" stop-opacity=".38"/>
    <stop offset="100%" stop-color="#A54CFF" stop-opacity="0"/></radialGradient><filter id="arcGlow" x="-15%" y="-35%" width="130%" height="170%" color-interpolation-filters="sRGB"><feGaussianBlur stdDeviation="6.5"/></filter>
<filter id="sparkGlow" x="-20%" y="-50%" width="140%" height="200%" color-interpolation-filters="sRGB"><feGaussianBlur stdDeviation="2.4"/></filter>
</defs><g class="arc-network" aria-hidden="true"><g class="arc-glow"><path id="us-europe-01-glow" data-pair="us-europe" data-from="us" data-to="europe" data-base-opacity="0.126" d="M 228.8 329.515 C 285.0 72.0 735.0 92.0 1007.6 228.985" stroke="url(#g-us-europe)" stroke-width="10.20" opacity="0.126"/><path id="us-europe-02-glow" data-pair="us-europe" data-from="us" data-to="europe" data-base-opacity="0.093" d="M 228.8 329.515 C 338.0 104.0 822.0 116.0 1007.6 228.985" stroke="url(#g-us-europe)" stroke-width="7.39" opacity="0.093"/><path id="us-europe-03-glow" data-pair="us-europe" data-from="us" data-to="europe" data-base-opacity="0.066" d="M 228.8 329.515 C 270.0 137.0 690.0 158.0 1007.6 228.985" stroke="url(#g-us-europe)" stroke-width="5.86" opacity="0.066"/><path id="us-europe-04-glow" data-pair="us-europe" data-from="us" data-to="europe" data-base-opacity="0.147" d="M 228.8 329.515 C 372.0 154.0 874.0 154.0 1007.6 228.985" stroke="url(#g-us-europe)" stroke-width="11.47" opacity="0.147"/><path id="us-europe-05-glow" data-pair="us-europe" data-from="us" data-to="europe" data-base-opacity="0.075" d="M 228.8 329.515 C 305.0 188.0 758.0 182.0 1007.6 228.985" stroke="url(#g-us-europe)" stroke-width="6.88" opacity="0.075"/><path id="us-europe-06-glow" data-pair="us-europe" data-from="us" data-to="europe" data-base-opacity="0.102" d="M 228.8 329.515 C 418.0 218.0 862.0 205.0 1007.6 228.985" stroke="url(#g-us-europe)" stroke-width="8.41" opacity="0.102"/><path id="us-europe-07-glow" data-pair="us-europe" data-from="us" data-to="europe" data-base-opacity="0.081" d="M 228.8 329.515 C 356.0 258.0 790.0 235.0 1007.6 228.985" stroke="url(#g-us-europe)" stroke-width="6.88" opacity="0.081"/><path id="us-europe-08-glow" data-pair="us-europe" data-from="us" data-to="europe" data-base-opacity="0.057" d="M 228.8 329.515 C 452.0 296.0 900.0 246.0 1007.6 228.985" stroke="url(#g-us-europe)" stroke-width="5.35" opacity="0.057"/><path id="us-europe-09-glow" data-pair="us-europe" data-from="us" data-to="europe" data-base-opacity="0.063" d="M 228.8 329.515 C 390.0 338.0 746.0 302.0 1007.6 228.985" stroke="url(#g-us-europe)" stroke-width="5.86" opacity="0.063"/><path id="us-europe-10-glow" data-pair="us-europe" data-from="us" data-to="europe" data-base-opacity="0.045" d="M 228.8 329.515 C 500.0 388.0 888.0 306.0 1007.6 228.985" stroke="url(#g-us-europe)" stroke-width="5.20" opacity="0.045"/><path id="us-europe-11-glow" data-pair="us-europe" data-from="us" data-to="europe" data-base-opacity="0.033" d="M 228.8 329.515 C 326.0 438.0 772.0 350.0 1007.6 228.985" stroke="url(#g-us-europe)" stroke-width="5.20" opacity="0.033"/><path id="us-europe-12-glow" data-pair="us-europe" data-from="us" data-to="europe" data-base-opacity="0.024" d="M 228.8 329.515 C 544.0 498.0 925.0 362.0 1007.6 228.985" stroke="url(#g-us-europe)" stroke-width="5.20" opacity="0.024"/><path id="europe-asia-01-glow" data-pair="europe-asia" data-from="europe" data-to="asia" data-base-opacity="0.129" d="M 1007.6 228.985 C 1072.0 88.0 1588.0 116.0 1878.8 364.142" stroke="url(#g-europe-asia)" stroke-width="10.45" opacity="0.129"/><path id="europe-asia-02-glow" data-pair="europe-asia" data-from="europe" data-to="asia" data-base-opacity="0.093" d="M 1007.6 228.985 C 1118.0 118.0 1705.0 144.0 1878.8 364.142" stroke="url(#g-europe-asia)" stroke-width="7.39" opacity="0.093"/><path id="europe-asia-03-glow" data-pair="europe-asia" data-from="europe" data-to="asia" data-base-opacity="0.066" d="M 1007.6 228.985 C 1055.0 148.0 1528.0 169.0 1878.8 364.142" stroke="url(#g-europe-asia)" stroke-width="5.86" opacity="0.066"/><path id="europe-asia-04-glow" data-pair="europe-asia" data-from="europe" data-to="asia" data-base-opacity="0.144" d="M 1007.6 228.985 C 1172.0 164.0 1752.0 184.0 1878.8 364.142" stroke="url(#g-europe-asia)" stroke-width="11.22" opacity="0.144"/><path id="europe-asia-05-glow" data-pair="europe-asia" data-from="europe" data-to="asia" data-base-opacity="0.072" d="M 1007.6 228.985 C 1095.0 202.0 1652.0 211.0 1878.8 364.142" stroke="url(#g-europe-asia)" stroke-width="6.38" opacity="0.072"/><path id="europe-asia-06-glow" data-pair="europe-asia" data-from="europe" data-to="asia" data-base-opacity="0.099" d="M 1007.6 228.985 C 1215.0 234.0 1710.0 244.0 1878.8 364.142" stroke="url(#g-europe-asia)" stroke-width="8.16" opacity="0.099"/><path id="europe-asia-07-glow" data-pair="europe-asia" data-from="europe" data-to="asia" data-base-opacity="0.078" d="M 1007.6 228.985 C 1138.0 278.0 1618.0 291.0 1878.8 364.142" stroke="url(#g-europe-asia)" stroke-width="6.88" opacity="0.078"/><path id="europe-asia-08-glow" data-pair="europe-asia" data-from="europe" data-to="asia" data-base-opacity="0.054" d="M 1007.6 228.985 C 1242.0 318.0 1745.0 326.0 1878.8 364.142" stroke="url(#g-europe-asia)" stroke-width="5.35" opacity="0.054"/><path id="europe-asia-09-glow" data-pair="europe-asia" data-from="europe" data-to="asia" data-base-opacity="0.060" d="M 1007.6 228.985 C 1108.0 356.0 1584.0 388.0 1878.8 364.142" stroke="url(#g-europe-asia)" stroke-width="5.61" opacity="0.060"/><path id="europe-asia-10-glow" data-pair="europe-asia" data-from="europe" data-to="asia" data-base-opacity="0.042" d="M 1007.6 228.985 C 1265.0 418.0 1728.0 438.0 1878.8 364.142" stroke="url(#g-europe-asia)" stroke-width="5.20" opacity="0.042"/><path id="europe-asia-11-glow" data-pair="europe-asia" data-from="europe" data-to="asia" data-base-opacity="0.030" d="M 1007.6 228.985 C 1160.0 482.0 1625.0 515.0 1878.8 364.142" stroke="url(#g-europe-asia)" stroke-width="5.20" opacity="0.030"/><path id="europe-asia-12-glow" data-pair="europe-asia" data-from="europe" data-to="asia" data-base-opacity="0.024" d="M 1007.6 228.985 C 1310.0 540.0 1760.0 505.0 1878.8 364.142" stroke="url(#g-europe-asia)" stroke-width="5.20" opacity="0.024"/><path id="us-asia-01-glow" data-pair="us-asia" data-from="us" data-to="asia" data-base-opacity="0.060" d="M 228.8 329.515 C 274.0 18.0 1730.0 34.0 1878.8 364.142" stroke="url(#g-us-asia)" stroke-width="5.86" opacity="0.060"/><path id="us-asia-02-glow" data-pair="us-asia" data-from="us" data-to="asia" data-base-opacity="0.075" d="M 228.8 329.515 C 330.0 42.0 1615.0 70.0 1878.8 364.142" stroke="url(#g-us-asia)" stroke-width="6.88" opacity="0.075"/><path id="us-asia-03-glow" data-pair="us-asia" data-from="us" data-to="asia" data-base-opacity="0.051" d="M 228.8 329.515 C 405.0 64.0 1745.0 91.0 1878.8 364.142" stroke="url(#g-us-asia)" stroke-width="5.20" opacity="0.051"/><path id="us-asia-04-glow" data-pair="us-asia" data-from="us" data-to="asia" data-base-opacity="0.087" d="M 228.8 329.515 C 300.0 91.0 1538.0 118.0 1878.8 364.142" stroke="url(#g-us-asia)" stroke-width="7.90" opacity="0.087"/><path id="us-asia-05-glow" data-pair="us-asia" data-from="us" data-to="asia" data-base-opacity="0.066" d="M 228.8 329.515 C 474.0 112.0 1690.0 139.0 1878.8 364.142" stroke="url(#g-us-asia)" stroke-width="6.12" opacity="0.066"/><path id="us-asia-06-glow" data-pair="us-asia" data-from="us" data-to="asia" data-base-opacity="0.045" d="M 228.8 329.515 C 360.0 138.0 1488.0 155.0 1878.8 364.142" stroke="url(#g-us-asia)" stroke-width="5.20" opacity="0.045"/><path id="us-asia-07-glow" data-pair="us-asia" data-from="us" data-to="asia" data-base-opacity="0.093" d="M 228.8 329.515 C 520.0 165.0 1765.0 176.0 1878.8 364.142" stroke="url(#g-us-asia)" stroke-width="8.41" opacity="0.093"/><path id="us-asia-08-glow" data-pair="us-asia" data-from="us" data-to="asia" data-base-opacity="0.054" d="M 228.8 329.515 C 395.0 194.0 1588.0 211.0 1878.8 364.142" stroke="url(#g-us-asia)" stroke-width="5.35" opacity="0.054"/><path id="us-asia-09-glow" data-pair="us-asia" data-from="us" data-to="asia" data-base-opacity="0.084" d="M 228.8 329.515 C 566.0 220.0 1710.0 229.0 1878.8 364.142" stroke="url(#g-us-asia)" stroke-width="7.39" opacity="0.084"/><path id="us-asia-10-glow" data-pair="us-asia" data-from="us" data-to="asia" data-base-opacity="0.042" d="M 228.8 329.515 C 430.0 244.0 1492.0 260.0 1878.8 364.142" stroke="url(#g-us-asia)" stroke-width="5.20" opacity="0.042"/><path id="us-asia-11-glow" data-pair="us-asia" data-from="us" data-to="asia" data-base-opacity="0.090" d="M 228.8 329.515 C 610.0 274.0 1762.0 278.0 1878.8 364.142" stroke="url(#g-us-asia)" stroke-width="7.90" opacity="0.090"/><path id="us-asia-12-glow" data-pair="us-asia" data-from="us" data-to="asia" data-base-opacity="0.039" d="M 228.8 329.515 C 358.0 302.0 1562.0 326.0 1878.8 364.142" stroke="url(#g-us-asia)" stroke-width="5.20" opacity="0.039"/><path id="us-asia-13-glow" data-pair="us-asia" data-from="us" data-to="asia" data-base-opacity="0.066" d="M 228.8 329.515 C 538.0 332.0 1668.0 346.0 1878.8 364.142" stroke="url(#g-us-asia)" stroke-width="6.12" opacity="0.066"/><path id="us-asia-14-glow" data-pair="us-asia" data-from="us" data-to="asia" data-base-opacity="0.048" d="M 228.8 329.515 C 452.0 369.0 1540.0 382.0 1878.8 364.142" stroke="url(#g-us-asia)" stroke-width="5.20" opacity="0.048"/><path id="us-asia-15-glow" data-pair="us-asia" data-from="us" data-to="asia" data-base-opacity="0.075" d="M 228.8 329.515 C 628.0 410.0 1750.0 421.0 1878.8 364.142" stroke="url(#g-us-asia)" stroke-width="6.88" opacity="0.075"/><path id="us-asia-16-glow" data-pair="us-asia" data-from="us" data-to="asia" data-base-opacity="0.039" d="M 228.8 329.515 C 405.0 454.0 1600.0 474.0 1878.8 364.142" stroke="url(#g-us-asia)" stroke-width="5.20" opacity="0.039"/><path id="us-asia-17-glow" data-pair="us-asia" data-from="us" data-to="asia" data-base-opacity="0.063" d="M 228.8 329.515 C 548.0 516.0 1700.0 538.0 1878.8 364.142" stroke="url(#g-us-asia)" stroke-width="6.02" opacity="0.063"/><path id="us-asia-18-glow" data-pair="us-asia" data-from="us" data-to="asia" data-base-opacity="0.036" d="M 228.8 329.515 C 330.0 570.0 1518.0 612.0 1878.8 364.142" stroke="url(#g-us-asia)" stroke-width="5.20" opacity="0.036"/><path id="us-asia-19-glow" data-pair="us-asia" data-from="us" data-to="asia" data-base-opacity="0.054" d="M 228.8 329.515 C 490.0 628.0 1642.0 668.0 1878.8 364.142" stroke="url(#g-us-asia)" stroke-width="5.35" opacity="0.054"/><path id="us-asia-20-glow" data-pair="us-asia" data-from="us" data-to="asia" data-base-opacity="0.045" d="M 228.8 329.515 C 600.0 708.0 1740.0 694.0 1878.8 364.142" stroke="url(#g-us-asia)" stroke-width="5.20" opacity="0.045"/><path id="us-asia-21-glow" data-pair="us-asia" data-from="us" data-to="asia" data-base-opacity="0.030" d="M 228.8 329.515 C 382.0 760.0 1548.0 782.0 1878.8 364.142" stroke="url(#g-us-asia)" stroke-width="5.20" opacity="0.030"/><path id="us-asia-22-glow" data-pair="us-asia" data-from="us" data-to="asia" data-base-opacity="0.027" d="M 228.8 329.515 C 548.0 832.0 1698.0 790.0 1878.8 364.142" stroke="url(#g-us-asia)" stroke-width="5.20" opacity="0.027"/><path id="us-asia-23-glow" data-pair="us-asia" data-from="us" data-to="asia" data-base-opacity="0.024" d="M 228.8 329.515 C 710.0 902.0 1750.0 828.0 1878.8 364.142" stroke="url(#g-us-asia)" stroke-width="5.20" opacity="0.024"/><path id="us-asia-24-glow" data-pair="us-asia" data-from="us" data-to="asia" data-base-opacity="0.021" d="M 228.8 329.515 C 292.0 684.0 1432.0 742.0 1878.8 364.142" stroke="url(#g-us-asia)" stroke-width="5.20" opacity="0.021"/><path id="us-europe-hero-a-glow" data-pair="us-europe" data-from="us" data-to="europe" data-base-opacity="0.186" d="M 228.8 329.515 C 296 166 430 104 574 112 C 724 121 856 194 1007.6 228.985" stroke="url(#g-us-europe)" stroke-width="13.51" opacity="0.186"/><path id="us-europe-hero-b-glow" data-pair="us-europe" data-from="us" data-to="europe" data-base-opacity="0.141" d="M 228.8 329.515 C 348 338 522 322 666 282 C 806 243 913 256 1007.6 228.985" stroke="url(#g-us-europe)" stroke-width="10.96" opacity="0.141"/><path id="europe-asia-hero-a-glow" data-pair="europe-asia" data-from="europe" data-to="asia" data-base-opacity="0.180" d="M 1007.6 228.985 C 1138 154 1308 168 1450 205 C 1606 246 1748 310 1878.8 364.142" stroke="url(#g-europe-asia)" stroke-width="13.00" opacity="0.180"/><path id="europe-asia-hero-b-glow" data-pair="europe-asia" data-from="europe" data-to="asia" data-base-opacity="0.132" d="M 1007.6 228.985 C 1154 314 1340 363 1498 334 C 1650 306 1785 342 1878.8 364.142" stroke="url(#g-europe-asia)" stroke-width="10.45" opacity="0.132"/><path id="us-asia-hero-top-glow" data-pair="us-asia" data-from="us" data-to="asia" data-base-opacity="0.132" d="M 228.8 329.515 C 280 36 706 40 1088 70 C 1480 101 1742 212 1878.8 364.142" stroke="url(#g-us-asia)" stroke-width="10.45" opacity="0.132"/><path id="us-asia-hero-mid-glow" data-pair="us-asia" data-from="us" data-to="asia" data-base-opacity="0.165" d="M 228.8 329.515 C 332 156 650 138 1004 170 C 1360 203 1660 278 1878.8 364.142" stroke="url(#g-us-asia)" stroke-width="12.24" opacity="0.165"/><path id="us-asia-hero-low-glow" data-pair="us-asia" data-from="us" data-to="asia" data-base-opacity="0.165" d="M 228.8 329.515 C 348 410 628 532 958 574 C 1285 615 1600 600 1878.8 364.142" stroke="url(#g-us-asia)" stroke-width="12.49" opacity="0.165"/><path id="us-asia-hero-deep-glow" data-pair="us-asia" data-from="us" data-to="asia" data-base-opacity="0.114" d="M 228.8 329.515 C 460 512 846 726 1198 716 C 1500 708 1740 503 1878.8 364.142" stroke="url(#g-us-asia)" stroke-width="8.92" opacity="0.114"/></g><g class="arc-core"><path id="us-europe-01" data-pair="us-europe" data-from="us" data-to="europe" data-base-opacity="0.420" d="M 228.8 329.515 C 285.0 72.0 735.0 92.0 1007.6 228.985" stroke="url(#g-us-europe)" stroke-width="2.00" opacity="0.420"/><path id="us-europe-02" data-pair="us-europe" data-from="us" data-to="europe" data-base-opacity="0.310" d="M 228.8 329.515 C 338.0 104.0 822.0 116.0 1007.6 228.985" stroke="url(#g-us-europe)" stroke-width="1.45" opacity="0.310"/><path id="us-europe-03" data-pair="us-europe" data-from="us" data-to="europe" data-base-opacity="0.220" d="M 228.8 329.515 C 270.0 137.0 690.0 158.0 1007.6 228.985" stroke="url(#g-us-europe)" stroke-width="1.15" opacity="0.220"/><path id="us-europe-04" data-pair="us-europe" data-from="us" data-to="europe" data-base-opacity="0.490" d="M 228.8 329.515 C 372.0 154.0 874.0 154.0 1007.6 228.985" stroke="url(#g-us-europe)" stroke-width="2.25" opacity="0.490"/><path id="us-europe-05" data-pair="us-europe" data-from="us" data-to="europe" data-base-opacity="0.250" d="M 228.8 329.515 C 305.0 188.0 758.0 182.0 1007.6 228.985" stroke="url(#g-us-europe)" stroke-width="1.35" opacity="0.250"/><path id="us-europe-06" data-pair="us-europe" data-from="us" data-to="europe" data-base-opacity="0.340" d="M 228.8 329.515 C 418.0 218.0 862.0 205.0 1007.6 228.985" stroke="url(#g-us-europe)" stroke-width="1.65" opacity="0.340"/><path id="us-europe-07" data-pair="us-europe" data-from="us" data-to="europe" data-base-opacity="0.270" d="M 228.8 329.515 C 356.0 258.0 790.0 235.0 1007.6 228.985" stroke="url(#g-us-europe)" stroke-width="1.35" opacity="0.270"/><path id="us-europe-08" data-pair="us-europe" data-from="us" data-to="europe" data-base-opacity="0.190" d="M 228.8 329.515 C 452.0 296.0 900.0 246.0 1007.6 228.985" stroke="url(#g-us-europe)" stroke-width="1.05" opacity="0.190"/><path id="us-europe-09" data-pair="us-europe" data-from="us" data-to="europe" data-base-opacity="0.210" d="M 228.8 329.515 C 390.0 338.0 746.0 302.0 1007.6 228.985" stroke="url(#g-us-europe)" stroke-width="1.15" opacity="0.210"/><path id="us-europe-10" data-pair="us-europe" data-from="us" data-to="europe" data-base-opacity="0.150" d="M 228.8 329.515 C 500.0 388.0 888.0 306.0 1007.6 228.985" stroke="url(#g-us-europe)" stroke-width="0.95" opacity="0.150"/><path id="us-europe-11" data-pair="us-europe" data-from="us" data-to="europe" data-base-opacity="0.110" d="M 228.8 329.515 C 326.0 438.0 772.0 350.0 1007.6 228.985" stroke="url(#g-us-europe)" stroke-width="0.85" opacity="0.110"/><path id="us-europe-12" data-pair="us-europe" data-from="us" data-to="europe" data-base-opacity="0.080" d="M 228.8 329.515 C 544.0 498.0 925.0 362.0 1007.6 228.985" stroke="url(#g-us-europe)" stroke-width="0.75" opacity="0.080"/><path id="europe-asia-01" data-pair="europe-asia" data-from="europe" data-to="asia" data-base-opacity="0.430" d="M 1007.6 228.985 C 1072.0 88.0 1588.0 116.0 1878.8 364.142" stroke="url(#g-europe-asia)" stroke-width="2.05" opacity="0.430"/><path id="europe-asia-02" data-pair="europe-asia" data-from="europe" data-to="asia" data-base-opacity="0.310" d="M 1007.6 228.985 C 1118.0 118.0 1705.0 144.0 1878.8 364.142" stroke="url(#g-europe-asia)" stroke-width="1.45" opacity="0.310"/><path id="europe-asia-03" data-pair="europe-asia" data-from="europe" data-to="asia" data-base-opacity="0.220" d="M 1007.6 228.985 C 1055.0 148.0 1528.0 169.0 1878.8 364.142" stroke="url(#g-europe-asia)" stroke-width="1.15" opacity="0.220"/><path id="europe-asia-04" data-pair="europe-asia" data-from="europe" data-to="asia" data-base-opacity="0.480" d="M 1007.6 228.985 C 1172.0 164.0 1752.0 184.0 1878.8 364.142" stroke="url(#g-europe-asia)" stroke-width="2.20" opacity="0.480"/><path id="europe-asia-05" data-pair="europe-asia" data-from="europe" data-to="asia" data-base-opacity="0.240" d="M 1007.6 228.985 C 1095.0 202.0 1652.0 211.0 1878.8 364.142" stroke="url(#g-europe-asia)" stroke-width="1.25" opacity="0.240"/><path id="europe-asia-06" data-pair="europe-asia" data-from="europe" data-to="asia" data-base-opacity="0.330" d="M 1007.6 228.985 C 1215.0 234.0 1710.0 244.0 1878.8 364.142" stroke="url(#g-europe-asia)" stroke-width="1.60" opacity="0.330"/><path id="europe-asia-07" data-pair="europe-asia" data-from="europe" data-to="asia" data-base-opacity="0.260" d="M 1007.6 228.985 C 1138.0 278.0 1618.0 291.0 1878.8 364.142" stroke="url(#g-europe-asia)" stroke-width="1.35" opacity="0.260"/><path id="europe-asia-08" data-pair="europe-asia" data-from="europe" data-to="asia" data-base-opacity="0.180" d="M 1007.6 228.985 C 1242.0 318.0 1745.0 326.0 1878.8 364.142" stroke="url(#g-europe-asia)" stroke-width="1.05" opacity="0.180"/><path id="europe-asia-09" data-pair="europe-asia" data-from="europe" data-to="asia" data-base-opacity="0.200" d="M 1007.6 228.985 C 1108.0 356.0 1584.0 388.0 1878.8 364.142" stroke="url(#g-europe-asia)" stroke-width="1.10" opacity="0.200"/><path id="europe-asia-10" data-pair="europe-asia" data-from="europe" data-to="asia" data-base-opacity="0.140" d="M 1007.6 228.985 C 1265.0 418.0 1728.0 438.0 1878.8 364.142" stroke="url(#g-europe-asia)" stroke-width="0.95" opacity="0.140"/><path id="europe-asia-11" data-pair="europe-asia" data-from="europe" data-to="asia" data-base-opacity="0.100" d="M 1007.6 228.985 C 1160.0 482.0 1625.0 515.0 1878.8 364.142" stroke="url(#g-europe-asia)" stroke-width="0.82" opacity="0.100"/><path id="europe-asia-12" data-pair="europe-asia" data-from="europe" data-to="asia" data-base-opacity="0.080" d="M 1007.6 228.985 C 1310.0 540.0 1760.0 505.0 1878.8 364.142" stroke="url(#g-europe-asia)" stroke-width="0.72" opacity="0.080"/><path id="us-asia-01" data-pair="us-asia" data-from="us" data-to="asia" data-base-opacity="0.200" d="M 228.8 329.515 C 274.0 18.0 1730.0 34.0 1878.8 364.142" stroke="url(#g-us-asia)" stroke-width="1.15" opacity="0.200"/><path id="us-asia-02" data-pair="us-asia" data-from="us" data-to="asia" data-base-opacity="0.250" d="M 228.8 329.515 C 330.0 42.0 1615.0 70.0 1878.8 364.142" stroke="url(#g-us-asia)" stroke-width="1.35" opacity="0.250"/><path id="us-asia-03" data-pair="us-asia" data-from="us" data-to="asia" data-base-opacity="0.170" d="M 228.8 329.515 C 405.0 64.0 1745.0 91.0 1878.8 364.142" stroke="url(#g-us-asia)" stroke-width="1.00" opacity="0.170"/><path id="us-asia-04" data-pair="us-asia" data-from="us" data-to="asia" data-base-opacity="0.290" d="M 228.8 329.515 C 300.0 91.0 1538.0 118.0 1878.8 364.142" stroke="url(#g-us-asia)" stroke-width="1.55" opacity="0.290"/><path id="us-asia-05" data-pair="us-asia" data-from="us" data-to="asia" data-base-opacity="0.220" d="M 228.8 329.515 C 474.0 112.0 1690.0 139.0 1878.8 364.142" stroke="url(#g-us-asia)" stroke-width="1.20" opacity="0.220"/><path id="us-asia-06" data-pair="us-asia" data-from="us" data-to="asia" data-base-opacity="0.150" d="M 228.8 329.515 C 360.0 138.0 1488.0 155.0 1878.8 364.142" stroke="url(#g-us-asia)" stroke-width="0.95" opacity="0.150"/><path id="us-asia-07" data-pair="us-asia" data-from="us" data-to="asia" data-base-opacity="0.310" d="M 228.8 329.515 C 520.0 165.0 1765.0 176.0 1878.8 364.142" stroke="url(#g-us-asia)" stroke-width="1.65" opacity="0.310"/><path id="us-asia-08" data-pair="us-asia" data-from="us" data-to="asia" data-base-opacity="0.180" d="M 228.8 329.515 C 395.0 194.0 1588.0 211.0 1878.8 364.142" stroke="url(#g-us-asia)" stroke-width="1.05" opacity="0.180"/><path id="us-asia-09" data-pair="us-asia" data-from="us" data-to="asia" data-base-opacity="0.280" d="M 228.8 329.515 C 566.0 220.0 1710.0 229.0 1878.8 364.142" stroke="url(#g-us-asia)" stroke-width="1.45" opacity="0.280"/><path id="us-asia-10" data-pair="us-asia" data-from="us" data-to="asia" data-base-opacity="0.140" d="M 228.8 329.515 C 430.0 244.0 1492.0 260.0 1878.8 364.142" stroke="url(#g-us-asia)" stroke-width="0.90" opacity="0.140"/><path id="us-asia-11" data-pair="us-asia" data-from="us" data-to="asia" data-base-opacity="0.300" d="M 228.8 329.515 C 610.0 274.0 1762.0 278.0 1878.8 364.142" stroke="url(#g-us-asia)" stroke-width="1.55" opacity="0.300"/><path id="us-asia-12" data-pair="us-asia" data-from="us" data-to="asia" data-base-opacity="0.130" d="M 228.8 329.515 C 358.0 302.0 1562.0 326.0 1878.8 364.142" stroke="url(#g-us-asia)" stroke-width="0.85" opacity="0.130"/><path id="us-asia-13" data-pair="us-asia" data-from="us" data-to="asia" data-base-opacity="0.220" d="M 228.8 329.515 C 538.0 332.0 1668.0 346.0 1878.8 364.142" stroke="url(#g-us-asia)" stroke-width="1.20" opacity="0.220"/><path id="us-asia-14" data-pair="us-asia" data-from="us" data-to="asia" data-base-opacity="0.160" d="M 228.8 329.515 C 452.0 369.0 1540.0 382.0 1878.8 364.142" stroke="url(#g-us-asia)" stroke-width="0.95" opacity="0.160"/><path id="us-asia-15" data-pair="us-asia" data-from="us" data-to="asia" data-base-opacity="0.250" d="M 228.8 329.515 C 628.0 410.0 1750.0 421.0 1878.8 364.142" stroke="url(#g-us-asia)" stroke-width="1.35" opacity="0.250"/><path id="us-asia-16" data-pair="us-asia" data-from="us" data-to="asia" data-base-opacity="0.130" d="M 228.8 329.515 C 405.0 454.0 1600.0 474.0 1878.8 364.142" stroke="url(#g-us-asia)" stroke-width="0.85" opacity="0.130"/><path id="us-asia-17" data-pair="us-asia" data-from="us" data-to="asia" data-base-opacity="0.210" d="M 228.8 329.515 C 548.0 516.0 1700.0 538.0 1878.8 364.142" stroke="url(#g-us-asia)" stroke-width="1.18" opacity="0.210"/><path id="us-asia-18" data-pair="us-asia" data-from="us" data-to="asia" data-base-opacity="0.120" d="M 228.8 329.515 C 330.0 570.0 1518.0 612.0 1878.8 364.142" stroke="url(#g-us-asia)" stroke-width="0.80" opacity="0.120"/><path id="us-asia-19" data-pair="us-asia" data-from="us" data-to="asia" data-base-opacity="0.180" d="M 228.8 329.515 C 490.0 628.0 1642.0 668.0 1878.8 364.142" stroke="url(#g-us-asia)" stroke-width="1.05" opacity="0.180"/><path id="us-asia-20" data-pair="us-asia" data-from="us" data-to="asia" data-base-opacity="0.150" d="M 228.8 329.515 C 600.0 708.0 1740.0 694.0 1878.8 364.142" stroke="url(#g-us-asia)" stroke-width="0.92" opacity="0.150"/><path id="us-asia-21" data-pair="us-asia" data-from="us" data-to="asia" data-base-opacity="0.100" d="M 228.8 329.515 C 382.0 760.0 1548.0 782.0 1878.8 364.142" stroke="url(#g-us-asia)" stroke-width="0.74" opacity="0.100"/><path id="us-asia-22" data-pair="us-asia" data-from="us" data-to="asia" data-base-opacity="0.090" d="M 228.8 329.515 C 548.0 832.0 1698.0 790.0 1878.8 364.142" stroke="url(#g-us-asia)" stroke-width="0.70" opacity="0.090"/><path id="us-asia-23" data-pair="us-asia" data-from="us" data-to="asia" data-base-opacity="0.080" d="M 228.8 329.515 C 710.0 902.0 1750.0 828.0 1878.8 364.142" stroke="url(#g-us-asia)" stroke-width="0.66" opacity="0.080"/><path id="us-asia-24" data-pair="us-asia" data-from="us" data-to="asia" data-base-opacity="0.070" d="M 228.8 329.515 C 292.0 684.0 1432.0 742.0 1878.8 364.142" stroke="url(#g-us-asia)" stroke-width="0.62" opacity="0.070"/><path id="us-europe-hero-a" data-pair="us-europe" data-from="us" data-to="europe" data-base-opacity="0.620" d="M 228.8 329.515 C 296 166 430 104 574 112 C 724 121 856 194 1007.6 228.985" stroke="url(#g-us-europe)" stroke-width="2.65" opacity="0.620"/><path id="us-europe-hero-b" data-pair="us-europe" data-from="us" data-to="europe" data-base-opacity="0.470" d="M 228.8 329.515 C 348 338 522 322 666 282 C 806 243 913 256 1007.6 228.985" stroke="url(#g-us-europe)" stroke-width="2.15" opacity="0.470"/><path id="europe-asia-hero-a" data-pair="europe-asia" data-from="europe" data-to="asia" data-base-opacity="0.600" d="M 1007.6 228.985 C 1138 154 1308 168 1450 205 C 1606 246 1748 310 1878.8 364.142" stroke="url(#g-europe-asia)" stroke-width="2.55" opacity="0.600"/><path id="europe-asia-hero-b" data-pair="europe-asia" data-from="europe" data-to="asia" data-base-opacity="0.440" d="M 1007.6 228.985 C 1154 314 1340 363 1498 334 C 1650 306 1785 342 1878.8 364.142" stroke="url(#g-europe-asia)" stroke-width="2.05" opacity="0.440"/><path id="us-asia-hero-top" data-pair="us-asia" data-from="us" data-to="asia" data-base-opacity="0.440" d="M 228.8 329.515 C 280 36 706 40 1088 70 C 1480 101 1742 212 1878.8 364.142" stroke="url(#g-us-asia)" stroke-width="2.05" opacity="0.440"/><path id="us-asia-hero-mid" data-pair="us-asia" data-from="us" data-to="asia" data-base-opacity="0.550" d="M 228.8 329.515 C 332 156 650 138 1004 170 C 1360 203 1660 278 1878.8 364.142" stroke="url(#g-us-asia)" stroke-width="2.40" opacity="0.550"/><path id="us-asia-hero-low" data-pair="us-asia" data-from="us" data-to="asia" data-base-opacity="0.550" d="M 228.8 329.515 C 348 410 628 532 958 574 C 1285 615 1600 600 1878.8 364.142" stroke="url(#g-us-asia)" stroke-width="2.45" opacity="0.550"/><path id="us-asia-hero-deep" data-pair="us-asia" data-from="us" data-to="asia" data-base-opacity="0.380" d="M 228.8 329.515 C 460 512 846 726 1198 716 C 1500 708 1740 503 1878.8 364.142" stroke="url(#g-us-asia)" stroke-width="1.75" opacity="0.380"/></g><g class="arc-pulse"><path data-pair="us-europe" data-from="us" data-to="europe" data-base-opacity=".68" d="M 228.8 329.515 C 285.0 72.0 735.0 92.0 1007.6 228.985" stroke="url(#g-us-europe)" stroke-width="5.10" opacity=".68" style="--duration:4.95s;animation-delay:-0.61s"/><path data-pair="us-europe" data-from="us" data-to="europe" data-base-opacity=".68" d="M 228.8 329.515 C 372.0 154.0 874.0 154.0 1007.6 228.985" stroke="url(#g-us-europe)" stroke-width="5.80" opacity=".68" style="--duration:5.50s;animation-delay:-1.22s"/><path data-pair="us-europe" data-from="us" data-to="europe" data-base-opacity=".68" d="M 228.8 329.515 C 356.0 258.0 790.0 235.0 1007.6 228.985" stroke="url(#g-us-europe)" stroke-width="4.40" opacity=".68" style="--duration:6.05s;animation-delay:-1.83s"/><path data-pair="europe-asia" data-from="europe" data-to="asia" data-base-opacity=".68" d="M 1007.6 228.985 C 1072.0 88.0 1588.0 116.0 1878.8 364.142" stroke="url(#g-europe-asia)" stroke-width="5.10" opacity=".68" style="--duration:6.60s;animation-delay:-2.44s"/><path data-pair="europe-asia" data-from="europe" data-to="asia" data-base-opacity=".68" d="M 1007.6 228.985 C 1172.0 164.0 1752.0 184.0 1878.8 364.142" stroke="url(#g-europe-asia)" stroke-width="5.80" opacity=".68" style="--duration:4.40s;animation-delay:-3.05s"/><path data-pair="europe-asia" data-from="europe" data-to="asia" data-base-opacity=".68" d="M 1007.6 228.985 C 1138.0 278.0 1618.0 291.0 1878.8 364.142" stroke="url(#g-europe-asia)" stroke-width="4.40" opacity=".68" style="--duration:4.95s;animation-delay:-3.66s"/><path data-pair="us-asia" data-from="us" data-to="asia" data-base-opacity=".68" d="M 228.8 329.515 C 330.0 42.0 1615.0 70.0 1878.8 364.142" stroke="url(#g-us-asia)" stroke-width="5.10" opacity=".68" style="--duration:5.50s;animation-delay:0.00s"/><path data-pair="us-asia" data-from="us" data-to="asia" data-base-opacity=".68" d="M 228.8 329.515 C 520.0 165.0 1765.0 176.0 1878.8 364.142" stroke="url(#g-us-asia)" stroke-width="5.80" opacity=".68" style="--duration:6.05s;animation-delay:-0.61s"/><path data-pair="us-asia" data-from="us" data-to="asia" data-base-opacity=".68" d="M 228.8 329.515 C 610.0 274.0 1762.0 278.0 1878.8 364.142" stroke="url(#g-us-asia)" stroke-width="4.40" opacity=".68" style="--duration:6.60s;animation-delay:-1.22s"/><path data-pair="us-asia" data-from="us" data-to="asia" data-base-opacity=".68" d="M 228.8 329.515 C 628.0 410.0 1750.0 421.0 1878.8 364.142" stroke="url(#g-us-asia)" stroke-width="5.10" opacity=".68" style="--duration:4.40s;animation-delay:-1.83s"/><path data-pair="us-asia" data-from="us" data-to="asia" data-base-opacity=".68" d="M 228.8 329.515 C 490.0 628.0 1642.0 668.0 1878.8 364.142" stroke="url(#g-us-asia)" stroke-width="5.80" opacity=".68" style="--duration:4.95s;animation-delay:-2.44s"/><path data-pair="us-europe" data-from="us" data-to="europe" data-base-opacity=".68" d="M 228.8 329.515 C 296 166 430 104 574 112 C 724 121 856 194 1007.6 228.985" stroke="url(#g-us-europe)" stroke-width="4.40" opacity=".68" style="--duration:5.50s;animation-delay:-3.05s"/><path data-pair="us-europe" data-from="us" data-to="europe" data-base-opacity=".68" d="M 228.8 329.515 C 348 338 522 322 666 282 C 806 243 913 256 1007.6 228.985" stroke="url(#g-us-europe)" stroke-width="5.10" opacity=".68" style="--duration:6.05s;animation-delay:-3.66s"/><path data-pair="europe-asia" data-from="europe" data-to="asia" data-base-opacity=".68" d="M 1007.6 228.985 C 1138 154 1308 168 1450 205 C 1606 246 1748 310 1878.8 364.142" stroke="url(#g-europe-asia)" stroke-width="5.80" opacity=".68" style="--duration:6.60s;animation-delay:0.00s"/><path data-pair="us-asia" data-from="us" data-to="asia" data-base-opacity=".68" d="M 228.8 329.515 C 280 36 706 40 1088 70 C 1480 101 1742 212 1878.8 364.142" stroke="url(#g-us-asia)" stroke-width="4.40" opacity=".68" style="--duration:4.40s;animation-delay:-0.61s"/><path data-pair="us-asia" data-from="us" data-to="asia" data-base-opacity=".68" d="M 228.8 329.515 C 332 156 650 138 1004 170 C 1360 203 1660 278 1878.8 364.142" stroke="url(#g-us-asia)" stroke-width="5.10" opacity=".68" style="--duration:4.95s;animation-delay:-1.22s"/><path data-pair="us-asia" data-from="us" data-to="asia" data-base-opacity=".68" d="M 228.8 329.515 C 348 410 628 532 958 574 C 1285 615 1600 600 1878.8 364.142" stroke="url(#g-us-asia)" stroke-width="5.80" opacity=".68" style="--duration:5.50s;animation-delay:-1.83s"/></g><g class="node node-us" data-region="us" data-share="33.40">
    <circle class="node-halo" cx="228.8" cy="329.515" r="61.23" fill="url(#halo-us)" opacity=".90"/>
    <circle class="node-ring" cx="228.8" cy="329.515" r="27.55" fill="none" stroke="#3284FF" stroke-opacity=".26" stroke-width="1.1" vector-effect="non-scaling-stroke"/>
    <circle class="node-core" cx="228.8" cy="329.515" r="10.80" fill="#fff" stroke="#3284FF" stroke-width="1.73" vector-effect="non-scaling-stroke"/></g><g class="node node-europe" data-region="europe" data-share="0.12">
    <circle class="node-halo" cx="1007.6" cy="228.985" r="17.77" fill="url(#halo-europe)" opacity=".90"/>
    <circle class="node-ring" cx="1007.6" cy="228.985" r="8.84" fill="none" stroke="#FFC21C" stroke-opacity=".26" stroke-width="1.1" vector-effect="non-scaling-stroke"/>
    <circle class="node-core" cx="1007.6" cy="228.985" r="3.47" fill="#fff" stroke="#FFC21C" stroke-width="1.20" vector-effect="non-scaling-stroke"/></g><g class="node node-asia" data-region="asia" data-share="59.68">
    <circle class="node-halo" cx="1878.8" cy="364.142" r="76.80" fill="url(#halo-asia)" opacity=".90"/>
    <circle class="node-ring" cx="1878.8" cy="364.142" r="34.24" fill="none" stroke="#A54CFF" stroke-opacity=".26" stroke-width="1.1" vector-effect="non-scaling-stroke"/>
    <circle class="node-core" cx="1878.8" cy="364.142" r="13.43" fill="#fff" stroke="#A54CFF" stroke-width="2.15" vector-effect="non-scaling-stroke"/></g></g></svg>